# xmcd
#
# Track frame offsets: 
#        150
#        19500
#        44200
#        73193
#        92571
#        110515
#        130323
#        146615
#        173587
#        195735
#        216366
#        240702
#
# Disc length: 3476 seconds
#
# Revision: 1
# Processed by: cddbd v1.5.2PL0 Copyright (c) Steve Scherf et al.
# Submitted via: ExactAudioCopy v0.95b3
#
DISCID=b20d920c
DTITLE=Bonnie Raitt - Slipstream
DYEAR=2012
DGENRE=Rock
TTITLE0=Used To Rule The World
TTITLE1=Right Down The Line
TTITLE2=Million Miles
TTITLE3=You Can't Fail Me Now
TTITLE4=Down To You
TTITLE5=Take My Love With You
TTITLE6=Not Cause I Wanted To
TTITLE7=Ain't Gonna Let You Go
TTITLE8=Marriage Made In Hollywood
TTITLE9=Split Decision
TTITLE10=Standing In The Doorway
TTITLE11=God Only Knows
EXTD=
EXTT0=
EXTT1=
EXTT2=
EXTT3=
EXTT4=
EXTT5=
EXTT6=
EXTT7=
EXTT8=
EXTT9=
EXTT10=
EXTT11=
PLAYORDER=
